# xmcd
#
# Track frame offsets: 
#        150
#        17630
#        34529
#        53716
#        77419
#        101029
#        119818
#        139590
#        160093
#        181092
#        201776
#        224733
#
# Disc length: 3276 seconds
#
# Revision: 0
# Processed by: cddbd v1.5.2PL0 Copyright (c) Steve Scherf et al.
# Submitted via: ExactAudioCopyFreeDBPlugin 1.0
#
DISCID=9f0cca0c
DTITLE=Tim Lawson - At A Loss For Words
DYEAR=2005
DGENRE=Country
TTITLE0=Only Those
TTITLE1=Another Lifetime
TTITLE2=Nobody's Sure
TTITLE3=Maybe Tomorrow
TTITLE4=Could It Be You
TTITLE5=Few More Steps
TTITLE6=Frame of Mind
TTITLE7=Secrets Lie Beneath
TTITLE8=Slow It Down
TTITLE9=At a Loss for Words
TTITLE10=Why Not Today
TTITLE11=Uneven Road
EXTD=
EXTT0=
EXTT1=
EXTT2=
EXTT3=
EXTT4=
EXTT5=
EXTT6=
EXTT7=
EXTT8=
EXTT9=
EXTT10=
EXTT11=
PLAYORDER=
